<svg xmlns="http://www.w3.org/2000/svg" xmlns:xlink="http://www.w3.org/1999/xlink" width="512" zoomAndPan="magnify" viewBox="0 0 384 383.999986" height="512" preserveAspectRatio="xMidYMid meet" version="1.0"><defs><clipPath id="0c0fcd69ab"><path d="M 64.328125 60 L 330.578125 60 L 330.578125 327 L 64.328125 327 Z M 64.328125 60 " clip-rule="nonzero"/></clipPath></defs><g clip-path="url(#0c0fcd69ab)"><path fill="#abb2bf" d="M 290.429688 99.226562 C 265.558594 74.296875 232.433594 60.585938 197.234375 60.585938 C 124.578125 60.585938 65.453125 119.707031 65.453125 192.363281 C 65.453125 215.574219 71.507812 238.25 83.027344 258.253906 L 64.328125 326.519531 L 134.195312 308.175781 C 153.425781 318.683594 175.09375 324.203125 197.175781 324.203125 L 197.234375 324.203125 C 269.832031 324.203125 330.261719 265.082031 330.261719 192.421875 C 330.261719 157.222656 315.300781 124.160156 290.429688 99.226562 Z M 197.234375 302.003906 C 177.527344 302.003906 158.234375 296.71875 141.4375 286.746094 L 137.457031 284.371094 L 96.027344 295.234375 L 107.066406 254.8125 L 104.453125 250.65625 C 93.472656 233.203125 87.714844 213.082031 87.714844 192.363281 C 87.714844 131.996094 136.867188 82.84375 197.292969 82.84375 C 226.558594 82.84375 254.042969 94.242188 274.699219 114.957031 C 295.355469 135.675781 308.058594 163.160156 308 192.421875 C 308 252.851562 257.605469 302.003906 197.234375 302.003906 Z M 257.308594 219.964844 C 254.042969 218.304688 237.835938 210.351562 234.808594 209.28125 C 231.78125 208.152344 229.585938 207.621094 227.390625 210.945312 C 225.191406 214.269531 218.902344 221.628906 216.941406 223.882812 C 215.042969 226.082031 213.082031 226.378906 209.820312 224.714844 C 190.46875 215.039062 177.765625 207.441406 165.003906 185.539062 C 161.617188 179.71875 168.386719 180.136719 174.675781 167.550781 C 175.746094 165.355469 175.210938 163.457031 174.382812 161.792969 C 173.550781 160.132812 166.960938 143.925781 164.230469 137.335938 C 161.558594 130.925781 158.828125 131.816406 156.808594 131.699219 C 154.910156 131.578125 152.714844 131.578125 150.519531 131.578125 C 148.320312 131.578125 144.761719 132.410156 141.734375 135.675781 C 138.707031 139 130.21875 146.953125 130.21875 163.160156 C 130.21875 179.363281 142.03125 195.035156 143.632812 197.230469 C 145.292969 199.429688 166.84375 232.667969 199.90625 246.976562 C 220.800781 256 228.992188 256.769531 239.441406 255.226562 C 245.792969 254.277344 258.910156 247.273438 261.640625 239.554688 C 264.371094 231.839844 264.371094 225.25 263.539062 223.882812 C 262.769531 222.402344 260.570312 221.570312 257.308594 219.964844 Z M 257.308594 219.964844 " fill-opacity="1" fill-rule="nonzero"/></g></svg>